<svg width="2848" height="2671" viewBox="0 0 2848 2671" fill="none" xmlns="http://www.w3.org/2000/svg">
<path d="M234.327 948.52C312.987 896.235 396.085 851.382 476.757 802.451C591.908 732.617 707.729 663.815 823.551 595.116C940.817 525.539 1058.65 456.84 1175.97 387.316C1278.11 326.772 1379.84 265.505 1481.94 204.755C1504.75 191.18 1528.18 178.535 1551.51 165.373C1557.91 171.257 1554.97 178.535 1554.97 184.78C1555.18 306.797 1554.92 428.814 1555.43 550.83C1555.49 566.108 1551.1 574.521 1537.11 582.728C1422.37 649.93 1308.41 718.526 1194.03 786.347C1089.72 848.182 984.947 909.345 880.687 971.334C778.75 1031.93 677.174 1093.2 575.443 1154.15C573.585 1156.11 571.366 1156.99 568.682 1156.78C526.823 1135.31 487.493 1109.56 446.925 1085.81C383.44 1048.7 320.161 1011.23 257.347 973.037C247.85 967.256 234.172 964.056 234.379 948.624L234.327 948.52Z" fill="black"/>
<path d="M2607.74 1742.87C2571.09 1770.79 2529.65 1790.87 2490.26 1814.25C2401.13 1867.21 2311.27 1918.87 2221.51 1970.8C2150.59 2011.83 2079.37 2052.35 2008.45 2093.43C1920.19 2144.58 1832.08 2196.09 1743.88 2247.4C1674.51 2287.76 1604.98 2327.87 1535.67 2368.38C1464.13 2410.14 1392.85 2452.21 1321.31 2493.96C1313.47 2498.56 1304.85 2501.81 1296.64 2505.63C1288.9 2500.21 1292.31 2492.72 1292.31 2486.63C1292.05 2364.67 1292.31 2242.7 1291.84 2120.74C1291.79 2106.54 1295.82 2099.73 1309.08 2092.09C1436.1 2019.42 1562.4 1945.4 1688.8 1871.59C1820.99 1794.43 1952.76 1716.6 2085.25 1639.9C2144.45 1605.62 2204.63 1573.16 2262.39 1536.41C2265.33 1533.26 2269 1532.59 2273.02 1533.16C2311.16 1550.66 2345.69 1574.55 2381.77 1595.66C2449.64 1635.3 2517.26 1675.36 2584.51 1716.08C2594.63 1722.22 2609.54 1725.73 2607.74 1742.82V1742.87Z" fill="black"/>
<path d="M570.281 1154.05C571.985 1154.05 573.688 1154.05 575.443 1154.05C624.992 1182.54 674.851 1210.57 724.091 1239.63C812.557 1291.86 900.61 1344.82 988.818 1397.41C1079.97 1451.76 1171.12 1506.06 1262.37 1560.2C1268 1563.56 1274.76 1565.06 1280.95 1567.38C1290.86 1568.36 1295.3 1574.81 1297.31 1583.74V1987.62C1262.68 1967.55 1230.94 1949.53 1199.56 1930.9C1101.13 1872.37 1002.86 1813.63 904.481 1755C806.879 1696.83 709.329 1638.45 611.521 1580.59C511.493 1521.44 411.053 1462.96 310.973 1403.86C285.012 1388.53 259.772 1371.97 234.224 1356.02C233.707 1342.96 244.701 1339.19 253.011 1334.18C349.632 1276.01 446.821 1218.72 543.958 1161.43C551.958 1156.68 560.01 1151.16 570.281 1154.1V1154.05Z" fill="black"/>
<path d="M2271.06 1536.41C2268.17 1536.41 2265.23 1536.41 2262.34 1536.46C2196.01 1496.72 2129.69 1456.98 2063.37 1417.28C1938.31 1342.49 1813.92 1266.62 1687.82 1193.69C1647.36 1170.31 1609.37 1142.13 1565.4 1124.78C1553.37 1125.25 1550.63 1117.3 1549.91 1107.6V703.713C1906.15 915.281 2259.14 1124.89 2612.12 1334.49C2610.22 1347.4 2599.48 1352.25 2590.03 1357.67C2492.28 1414.14 2394.52 1470.7 2297.44 1528.31C2289.28 1533.11 2281.18 1538.01 2271.06 1536.41Z" fill="black"/>
<path d="M1549.91 1107.65C1558.84 1109.97 1558.48 1120.71 1565.4 1124.83C1607.1 1192.91 1648.8 1260.99 1690.56 1329.02C1698.2 1341.46 1705.37 1351.89 1694.53 1367.94C1650.2 1433.49 1606.69 1499.61 1564.57 1566.66C1555.64 1580.85 1546.35 1583.22 1531.74 1583.17C1453.6 1582.91 1375.41 1583.48 1297.26 1583.74C1286.01 1584.1 1286.22 1573 1280.9 1567.38C1246.63 1504.77 1216.95 1438.96 1176.38 1380.74C1150.89 1344.15 1162.96 1319.52 1180.1 1290.83C1213.44 1235.08 1248.75 1180.53 1281 1124.16C1288.9 1110.33 1296.9 1108.27 1310.22 1108.27C1390.12 1108.37 1470.01 1107.91 1549.86 1107.6L1549.91 1107.65Z" fill="black"/>
<path d="M2271.06 1536.41C2337.13 1491.19 2408.46 1454.76 2476.69 1413.26C2521.28 1386.11 2566.91 1360.71 2612.12 1334.49C2620.95 1340.84 2617.08 1350.24 2617.08 1358.18C2617.34 1479.12 2617.39 1600 2616.98 1720.93C2616.98 1728.62 2623.58 1741.11 2607.69 1742.87C2577.49 1717.63 2542.08 1700.75 2508.59 1680.78C2431.73 1635.04 2354.57 1589.73 2277.67 1544.1C2274.88 1542.45 2273.23 1538.99 2271.06 1536.36V1536.41Z" fill="black"/>
<path d="M570.281 1154.05C508.087 1191.47 445.944 1228.94 383.749 1266.31C333.942 1296.25 284.083 1326.08 234.224 1355.97C227.72 1351.84 230.043 1345.28 230.043 1339.66C229.888 1214.7 229.888 1089.69 230.043 964.727C230.043 959.153 227.772 952.495 234.327 948.469C331.206 1006.33 428.24 1063.88 524.81 1122.25C540.552 1131.75 559.597 1137.02 570.281 1154V1154.05Z" fill="black"/>
</svg>
